<svg width="17" height="16" viewBox="0 0 17 16" fill="none" xmlns="http://www.w3.org/2000/svg">
<path d="M9.17476 8.01119L15.7579 1.46404C16.0735 1.15161 16.0735 0.645842 15.7579 0.334212C15.4431 0.0217849 14.9317 0.0217849 14.6169 0.334212L8.03942 6.87579L1.40107 0.236711C1.08626 -0.0789038 0.574908 -0.0789038 0.26009 0.236711C-0.0547279 0.553123 -0.0547279 1.06527 0.26009 1.38088L6.89359 8.01518L0.236114 14.6359C-0.0787045 14.9483 -0.0787045 15.454 0.236114 15.7657C0.550932 16.0781 1.06228 16.0781 1.3771 15.7657L8.02893 9.15058L14.6408 15.7633C14.9557 16.0789 15.467 16.0789 15.7818 15.7633C16.0966 15.4469 16.0966 14.9347 15.7818 14.6191L9.17476 8.01119Z" fill="#262626"/>
</svg>
