<svg width="100" height="100" viewBox="0 0 100 100" fill="none" xmlns="http://www.w3.org/2000/svg">
<path d="M85.3553 14.6445C75.9117 5.20098 63.3557 0 50 0C36.6445 0 24.0885 5.20098 14.6447 14.6445C5.20098 24.0883 0 36.6443 0 50C0 63.3557 5.20078 75.9117 14.6447 85.3555C24.0885 94.799 36.6445 100 50 100C63.3557 100 75.9117 94.799 85.3555 85.3555C94.7992 75.9117 100 63.3557 100 50C100 36.6443 94.7992 24.0883 85.3553 14.6445ZM53.1383 71.7578H52.9297V78.2424C52.9297 79.8604 51.6182 81.1721 50 81.1721C48.3822 81.1721 47.0703 79.8604 47.0703 78.2424V71.7578H40.5861C38.9684 71.7578 37.6564 70.4461 37.6564 68.8281C37.6564 67.2102 38.9684 65.8984 40.5861 65.8984H53.1385C56.7139 65.8984 59.6227 62.9895 59.6227 59.4141C59.6227 55.8387 56.7137 52.9297 53.1383 52.9297H46.8619C40.0557 52.9297 34.5184 47.3924 34.5184 40.5861C34.5184 33.7797 40.0559 28.2424 46.8619 28.2424H47.0703V21.758C47.0703 20.14 48.3822 18.8283 50 18.8283C51.6182 18.8283 52.9297 20.14 52.9297 21.758V28.2424H59.4143C61.032 28.2424 62.3439 29.5541 62.3439 31.1721C62.3439 32.79 61.032 34.1018 59.4143 34.1018H46.8619C43.2863 34.1018 40.3777 37.0105 40.3777 40.5861C40.3777 44.1615 43.2865 47.0703 46.8619 47.0703H53.1383C59.9445 47.0703 65.4818 52.6078 65.4818 59.4141C65.4818 66.2203 59.9445 71.7578 53.1383 71.7578Z" fill="#F7B81D"/>
</svg>
