<svg width="100" height="58" viewBox="0 0 100 58" fill="none" xmlns="http://www.w3.org/2000/svg">
<path d="M37.0529 40.3317C32.4371 40.3317 28.7069 44.0751 28.7069 48.6912C28.7069 53.2934 32.4371 57.0372 37.0529 57.0372C41.6688 57.0372 45.399 53.2934 45.399 48.6912C45.3989 44.0751 41.6688 40.3317 37.0529 40.3317ZM37.0529 52.8642C34.7449 52.8642 32.8797 50.9854 32.8797 48.6908C32.8797 46.3832 34.7449 44.5178 37.0529 44.5178C39.3608 44.5178 41.226 46.3832 41.226 48.6908C41.2258 50.9854 39.3608 52.8642 37.0529 52.8642ZM100 34.157V43.0689C100 45.292 98.1979 47.0943 95.9745 47.0943H91.6673C90.8891 41.7537 86.2868 37.6479 80.7315 37.6479C75.19 37.6479 70.5874 41.7539 69.8092 47.0943H47.9779C47.1997 41.7537 42.5972 37.6479 37.0556 37.6479C31.5139 37.6479 26.9114 41.7539 26.1333 47.0943H20.7392C18.516 47.0943 16.7139 45.2921 16.7139 43.0689V34.157H100ZM80.7423 40.3317C76.1265 40.3317 72.3828 44.0751 72.3828 48.6912C72.3828 53.2934 76.1266 57.0372 80.7423 57.0372C85.3446 57.0372 89.0882 53.2934 89.0882 48.6912C89.0882 44.0751 85.3446 40.3317 80.7423 40.3317ZM80.7423 52.8642C78.4343 52.8642 76.5693 50.9854 76.5693 48.6908C76.5693 46.3832 78.4343 44.5178 80.7423 44.5178C83.0368 44.5178 84.9154 46.3832 84.9154 48.6908C84.9154 50.9854 83.0368 52.8642 80.7423 52.8642ZM98.4139 25.1825L82.5941 9.53692C81.5877 8.54395 80.2325 7.98038 78.8235 7.98038H70.8399V4.98806C70.8399 2.76078 69.0418 0.962738 66.8145 0.962738H20.7364C18.5224 0.962738 16.7111 2.76094 16.7111 4.98806V5.61878L0.375817 7.50146L29.3212 11.2707L0 14.1835L29.218 18.3376L0 20.8709L16.7121 24.0229L16.7109 31.9318H99.9972V28.9931C99.9972 27.5573 99.4203 26.1889 98.4139 25.1825ZM91.517 25.7057H76.207C75.8582 25.7057 75.5763 25.424 75.5763 25.0752V13.2537C75.5763 12.9049 75.8582 12.623 76.207 12.623H79.1188C79.2797 12.623 79.4409 12.6902 79.5616 12.7975L91.9466 24.6189C92.3623 25.008 92.0804 25.7057 91.517 25.7057Z" fill="#F7B81D"/>
</svg>
