<svg width="18" height="18" viewBox="0 0 18 18" fill="none" xmlns="http://www.w3.org/2000/svg">
<path d="M7.97116 0.0575053C3.91145 0.510388 0.614255 3.73365 0.0803374 7.78344C-0.676155 13.5223 4.01566 18.4047 9.6987 17.9734C11.7892 17.8148 13.746 16.8806 15.2793 15.4507L15.411 15.3279C15.5624 15.1866 15.5707 14.9493 15.4294 14.7979L14.9177 14.2492C14.7765 14.0977 14.5392 14.0895 14.3877 14.2307L14.1134 14.4865C12.408 16.0767 10.0668 16.7922 7.70499 16.3899C4.35759 15.8198 1.78429 12.978 1.5229 9.59241C1.17728 5.1155 4.78853 1.37435 9.22233 1.5032C13.3106 1.62206 16.5 5.11079 16.5 9.20076V9.74998C16.5 10.6266 15.7446 11.3296 14.8504 11.2427C14.0712 11.1669 13.5 10.4665 13.5 9.68349V6.37501C13.5 6.16787 13.3321 6 13.125 6H12.375C12.2244 6 12.0965 6.09 12.0369 6.21807C11.2822 5.39496 10.2021 4.875 9 4.875C6.72546 4.875 4.87502 6.72545 4.87502 8.99999C4.87502 11.2745 6.72546 13.125 9 13.125C10.4328 13.125 11.6962 12.3899 12.4359 11.2779C12.9928 12.2087 14.0276 12.822 15.2055 12.7431C16.7982 12.6364 18 11.2403 18 9.64409V8.99999C18 3.6985 13.3921 -0.547252 7.97116 0.0575053ZM9 11.625C7.55273 11.625 6.37499 10.4473 6.37499 8.99999C6.37499 7.55271 7.55273 6.37498 9 6.37498C10.4473 6.37498 11.625 7.55271 11.625 8.99999C11.625 10.4473 10.4473 11.625 9 11.625Z" fill="#262626"/>
</svg>
