<svg width="13" height="12" viewBox="0 0 13 12" fill="none" xmlns="http://www.w3.org/2000/svg">
<path d="M8.72096 0H3.34409C1.51813 0 0.0325928 1.48561 0.0325928 3.31157V8.68843C0.0325928 10.5145 1.51813 12 3.34409 12H8.72096C10.5471 12 12.0326 10.5144 12.0326 8.68843V3.31157C12.0327 1.48561 10.5471 0 8.72096 0ZM10.968 8.68843C10.968 9.92739 9.95998 10.9353 8.72103 10.9353H3.34409C2.10521 10.9354 1.09729 9.92739 1.09729 8.68843V3.31157C1.09729 2.07268 2.10521 1.0647 3.34409 1.0647H8.72096C9.95991 1.0647 10.9679 2.07268 10.9679 3.31157V8.68843H10.968Z" fill="white"/>
<path d="M6.03253 2.90796C4.32752 2.90796 2.94043 4.29505 2.94043 6.00005C2.94043 7.70499 4.32752 9.09201 6.03253 9.09201C7.73753 9.09201 9.12462 7.70499 9.12462 6.00005C9.12462 4.29505 7.73753 2.90796 6.03253 2.90796ZM6.03253 8.02724C4.91466 8.02724 4.00513 7.11785 4.00513 5.99998C4.00513 4.88205 4.91459 3.97259 6.03253 3.97259C7.15046 3.97259 8.05993 4.88205 8.05993 5.99998C8.05993 7.11785 7.15039 8.02724 6.03253 8.02724Z" fill="white"/>
<path d="M9.25441 2.00513C9.04928 2.00513 8.84777 2.08817 8.7029 2.23368C8.55732 2.37848 8.47363 2.58006 8.47363 2.78591C8.47363 2.99111 8.55739 3.19262 8.7029 3.33813C8.8477 3.48293 9.04928 3.56668 9.25441 3.56668C9.46025 3.56668 9.66113 3.48293 9.80664 3.33813C9.95214 3.19262 10.0352 2.99104 10.0352 2.78591C10.0352 2.58006 9.95214 2.37848 9.80664 2.23368C9.66184 2.08817 9.46025 2.00513 9.25441 2.00513Z" fill="white"/>
</svg>
