<svg width="20" height="14" viewBox="0 0 20 14" fill="none" xmlns="http://www.w3.org/2000/svg">
<path d="M19.1333 6.22222H0.777778C0.348211 6.22222 0 6.57043 0 7C0 7.42957 0.348211 7.77778 0.777778 7.77778H19.1333C19.5629 7.77778 19.9111 7.42957 19.9111 7C19.9111 6.57043 19.5629 6.22222 19.1333 6.22222Z" fill="black"/>
<path d="M19.1333 0H0.777778C0.348211 0 0 0.348211 0 0.777778C0 1.20734 0.348211 1.55556 0.777778 1.55556H19.1333C19.5629 1.55556 19.9111 1.20734 19.9111 0.777778C19.9111 0.348211 19.5629 0 19.1333 0Z" fill="black"/>
<path d="M19.1333 12.4444H0.777778C0.348211 12.4444 0 12.7927 0 13.2222C0 13.6518 0.348211 14 0.777778 14H19.1333C19.5629 14 19.9111 13.6518 19.9111 13.2222C19.9111 12.7927 19.5629 12.4444 19.1333 12.4444Z" fill="black"/>
</svg>
