<svg width="86" height="100" viewBox="0 0 86 100" fill="none" xmlns="http://www.w3.org/2000/svg">
<path d="M85.3328 84.967C85.3328 84.967 74.2338 65.8913 72.2429 62.47C74.5081 61.779 76.9211 61.1688 77.9236 59.4376C79.5945 56.5531 76.6203 51.8212 77.4013 48.7293C78.2058 45.5472 82.955 42.7938 82.955 39.5592C82.955 36.408 78.045 32.7265 77.2399 29.563C76.4535 26.4717 79.4189 21.7347 77.7426 18.8536C76.0663 15.9723 70.4828 16.2091 68.1844 13.9974C65.8195 11.7214 65.8268 6.15285 62.9745 4.62761C60.1104 3.09669 55.4558 6.19068 52.2759 5.45779C49.1322 4.73327 46.3235 0 43.0398 0C39.7075 0 34.4073 5.36915 33.576 5.56237C30.3977 6.30121 25.7371 3.21479 22.8761 4.75219C20.0264 6.28256 20.044 11.8517 17.6834 14.1314C15.3888 16.3472 9.80506 16.1207 8.13389 19.0052C6.46299 21.8893 9.43726 26.6201 8.65654 29.7135C7.87365 32.8148 2.95904 35.9572 2.95904 39.5438C2.95904 42.7786 7.72015 45.5235 8.52952 48.7039C9.31619 51.7952 6.35084 56.5317 8.02714 59.4138C8.93975 60.9826 11.0103 61.6266 13.0782 62.2457C13.3195 62.3179 13.776 62.5878 13.4668 63.0383C12.0521 65.4802 0.665507 85.1319 0.665507 85.1319C-0.240341 86.695 0.495255 88.0348 2.29965 88.1107L11.1319 88.4791C12.9363 88.555 15.1999 89.8662 16.163 91.3939L20.876 98.8726C21.8392 100.4 23.3674 100.372 24.273 98.8088C24.273 98.8088 37.4599 76.042 37.4653 76.0356C37.7299 75.7264 37.9958 75.7899 38.1231 75.898C39.5659 77.1265 41.5773 78.3521 43.256 78.3521C44.9023 78.3521 46.4268 77.1984 47.9347 75.9118C48.0574 75.8072 48.356 75.5929 48.5744 76.0377C48.5779 76.0447 61.7503 98.6869 61.7503 98.6869C62.6583 100.248 64.1867 100.274 65.1469 98.7447L69.8467 91.2572C70.8071 89.7284 73.0682 88.4121 74.8726 88.3334L83.7041 87.9486C85.5077 87.8694 86.2409 86.5277 85.3328 84.967ZM57.6364 64.4879C47.8709 70.1692 36.1492 69.5603 27.1962 63.9131C14.0773 55.5099 9.76074 38.127 17.6472 24.5152C25.6236 10.7464 43.1577 5.88801 57.0505 13.4545C57.1235 13.4942 57.1956 13.5353 57.268 13.5758C57.371 13.6329 57.4737 13.6907 57.5761 13.7491C61.8621 16.2201 65.5788 19.8065 68.2401 24.3809C76.3738 38.3621 71.6173 56.3542 57.6364 64.4879Z" fill="#F7B81D"/>
<path d="M55.403 17.8637C55.3624 17.8402 55.3213 17.8183 55.2808 17.7951C47.8595 13.4999 38.4005 13.1859 30.473 17.7981C18.7088 24.6422 14.7058 39.7808 21.5499 51.5447C23.6383 55.1346 26.5001 58.0002 29.802 60.0567C30.0827 60.2346 30.3668 60.4094 30.657 60.5775C42.4338 67.4003 57.5643 63.3699 64.3868 51.5936C71.2091 39.8168 67.1798 24.6865 55.403 17.8637ZM58.3491 37.116L54.2255 41.1353C52.9484 42.38 52.1501 44.837 52.4519 46.595L53.4253 52.2703C53.7269 54.0282 52.6822 54.7873 51.1034 53.9574L46.0064 51.2777C44.4277 50.4478 41.8444 50.4478 40.2657 51.2777L35.1689 53.9574C33.5902 54.7873 32.5452 54.0282 32.8468 52.2703L33.8202 46.595C34.1218 44.837 33.3235 42.38 32.0463 41.1353L27.923 37.116C26.6455 35.8713 27.045 34.6427 28.8099 34.386L34.5082 33.558C36.2731 33.3015 38.3632 31.7831 39.1526 30.1838L41.7009 25.0203C42.4903 23.421 43.7821 23.421 44.5712 25.0203L47.1198 30.1838C47.9092 31.7831 49.999 33.3015 51.7642 33.558L57.4625 34.386C59.2271 34.6427 59.6263 35.8713 58.3491 37.116Z" fill="#F7B81D"/>
</svg>
