<svg width="18" height="18" viewBox="0 0 18 18" fill="none" xmlns="http://www.w3.org/2000/svg">
<path d="M18 8.76845C18 13.6108 14.044 17.5363 9.16288 17.5363C7.61392 17.5363 6.15887 17.1401 4.89223 16.4463L0 18L1.59474 13.2944C0.790622 11.9738 0.327518 10.4231 0.327518 8.76786C0.328105 3.92552 4.28298 0 9.16405 0C14.0445 0.0011739 18 3.92611 18 8.76845ZM9.16229 1.39812C5.06597 1.39812 1.73385 4.70499 1.73385 8.77021C1.73385 10.3831 2.25976 11.8763 3.14899 13.0913L2.22161 15.8283L5.07536 14.9214C6.24926 15.6915 7.65383 16.14 9.16229 16.14C13.2586 16.14 16.5919 12.8337 16.5919 8.76845C16.5931 4.70499 13.2592 1.39812 9.16229 1.39812ZM13.6255 10.7881C13.5703 10.6995 13.4259 10.6455 13.2099 10.5375C12.9945 10.4295 11.928 9.91007 11.7302 9.83963C11.5306 9.76744 11.3862 9.73105 11.2419 9.94646C11.0992 10.1619 10.6837 10.6455 10.5563 10.7899C10.4301 10.9337 10.3039 10.9519 10.0873 10.8457C9.87074 10.7365 9.17227 10.5111 8.34467 9.77918C7.70079 9.20866 7.26586 8.50608 7.14025 8.29067C7.01288 8.07585 7.12734 7.95963 7.23475 7.85281C7.33159 7.75596 7.45133 7.60159 7.55992 7.4754C7.6685 7.35038 7.70431 7.26175 7.7765 7.11794C7.84752 6.97414 7.81172 6.84912 7.75831 6.74054C7.70431 6.63254 7.27173 5.57603 7.09036 5.14579C6.91016 4.71614 6.72997 4.78717 6.60319 4.78717C6.47699 4.78717 6.33261 4.76956 6.18822 4.76956C6.04383 4.76956 5.80905 4.8218 5.61124 5.03721C5.41344 5.25262 4.85349 5.77207 4.85349 6.82975C4.85349 7.88861 5.62885 8.90932 5.73744 9.05253C5.84661 9.19516 7.23651 11.4367 9.43816 12.2972C11.641 13.1571 11.641 12.8701 12.0378 12.8337C12.4357 12.7973 13.3197 12.3142 13.4993 11.813C13.68 11.3094 13.68 10.8779 13.6255 10.7881Z" fill="#262626"/>
</svg>
