<svg width="100" height="100" fill="none" xmlns="http://www.w3.org/2000/svg"><path d="M85.355 14.645C75.912 5.2 63.355 0 50 0 36.645 0 24.088 5.201 14.645 14.645 5.2 24.087 0 36.645 0 50c0 13.356 5.2 25.912 14.645 35.356C24.089 94.799 36.645 100 50 100c13.356 0 25.912-5.201 35.356-14.644C94.799 75.912 100 63.356 100 50c0-13.356-5.2-25.912-14.645-35.355zM53.138 71.757h-.208v6.484a2.93 2.93 0 11-5.86 0v-6.484h-6.484a2.93 2.93 0 010-5.86H53.14a6.492 6.492 0 006.484-6.484 6.492 6.492 0 00-6.485-6.484h-6.276c-6.806 0-12.344-5.538-12.344-12.344 0-6.806 5.538-12.344 12.344-12.344h.208v-6.484a2.93 2.93 0 015.86 0v6.484h6.484a2.93 2.93 0 010 5.86H46.862a6.491 6.491 0 00-6.484 6.484 6.492 6.492 0 006.484 6.484h6.276c6.806 0 12.344 5.538 12.344 12.344 0 6.806-5.538 12.344-12.344 12.344z" fill="#F7B81D"/></svg>