<svg width="100" height="58" fill="none" xmlns="http://www.w3.org/2000/svg"><path d="M37.053 40.332c-4.616 0-8.346 3.743-8.346 8.36a8.346 8.346 0 0016.692 0c0-4.617-3.73-8.36-8.346-8.36zm0 12.532a4.178 4.178 0 01-4.173-4.173 4.17 4.17 0 014.173-4.173 4.17 4.17 0 014.173 4.173 4.178 4.178 0 01-4.173 4.173zM100 34.157v8.912a4.025 4.025 0 01-4.025 4.025h-4.308c-.778-5.34-5.38-9.446-10.936-9.446-5.541 0-10.144 4.106-10.922 9.446H47.978c-.778-5.34-5.38-9.446-10.922-9.446-5.542 0-10.145 4.106-10.923 9.446H20.74a4.025 4.025 0 01-4.025-4.025v-8.912H100zm-19.258 6.175a8.36 8.36 0 00-8.36 8.36c0 4.601 3.745 8.345 8.36 8.345 4.603 0 8.346-3.744 8.346-8.346 0-4.616-3.743-8.36-8.346-8.36zm0 12.532a4.178 4.178 0 01-4.173-4.173 4.169 4.169 0 014.173-4.173 4.178 4.178 0 014.173 4.173 4.186 4.186 0 01-4.173 4.173zm17.672-27.681L82.594 9.537a5.378 5.378 0 00-3.77-1.557H70.84V4.988A4.02 4.02 0 0066.814.963H20.736a4.029 4.029 0 00-4.025 4.025v.63L.376 7.502l28.945 3.77L0 14.183l29.218 4.155L0 20.87l16.712 3.152-.001 7.909h83.286v-2.939a5.393 5.393 0 00-1.583-3.81zm-6.897.523h-15.31a.63.63 0 01-.63-.63V13.253a.63.63 0 01.63-.631h2.912a.68.68 0 01.443.175l12.385 11.82c.415.39.133 1.088-.43 1.088z" fill="#F7B81D"/></svg>