<svg width="18" height="18" fill="none" xmlns="http://www.w3.org/2000/svg"><path d="M7.971.058C3.911.51.614 3.734.081 7.783c-.757 5.74 3.935 10.622 9.618 10.19 2.09-.158 4.047-1.092 5.58-2.522l.132-.123a.375.375 0 00.018-.53l-.511-.549a.375.375 0 00-.53-.018l-.275.255a7.497 7.497 0 01-6.408 1.904c-3.347-.57-5.92-3.412-6.182-6.798-.346-4.477 3.266-8.218 7.7-8.089 4.088.12 7.277 3.608 7.277 7.698v.549c0 .877-.755 1.58-1.65 1.493-.779-.076-1.35-.777-1.35-1.56V6.375A.375.375 0 0013.125 6h-.75c-.15 0-.278.09-.338.218A4.11 4.11 0 009 4.875 4.13 4.13 0 004.875 9 4.13 4.13 0 009 13.125a4.123 4.123 0 003.436-1.847 2.988 2.988 0 002.77 1.465C16.797 12.636 18 11.24 18 9.644V9C18 3.699 13.392-.547 7.971.058zM9 11.625A2.628 2.628 0 016.375 9 2.628 2.628 0 019 6.375 2.628 2.628 0 0111.625 9 2.628 2.628 0 019 11.625z" fill="#262626"/></svg>