<svg width="12" height="12" fill="none" xmlns="http://www.w3.org/2000/svg"><path d="M8.688 0H3.311A3.315 3.315 0 000 3.312v5.376A3.315 3.315 0 003.312 12h5.376A3.315 3.315 0 0012 8.688V3.312A3.315 3.315 0 008.688 0zm2.247 8.688a2.25 2.25 0 01-2.247 2.247H3.311a2.25 2.25 0 01-2.246-2.247V3.312a2.25 2.25 0 012.247-2.247h5.376a2.25 2.25 0 012.247 2.247v5.376z" fill="#B10999"/><path d="M6 2.908A3.096 3.096 0 002.908 6 3.095 3.095 0 006 9.092 3.096 3.096 0 009.092 6 3.096 3.096 0 006 2.908zm0 5.12A2.03 2.03 0 013.973 6 2.03 2.03 0 016 3.973 2.03 2.03 0 018.027 6 2.03 2.03 0 016 8.027zm3.222-6.023a.784.784 0 00-.781.78.787.787 0 00.78.78.788.788 0 00.553-.227.784.784 0 00-.552-1.333z" fill="#B10999"/></svg>