<svg width="13" height="12" fill="none" xmlns="http://www.w3.org/2000/svg"><path d="M8.721 0H3.344A3.315 3.315 0 00.033 3.312v5.376A3.315 3.315 0 003.344 12h5.377a3.315 3.315 0 003.312-3.312V3.312A3.315 3.315 0 008.72 0zm2.247 8.688a2.25 2.25 0 01-2.247 2.247H3.344a2.25 2.25 0 01-2.247-2.247V3.312a2.25 2.25 0 012.247-2.247h5.377a2.25 2.25 0 012.247 2.247v5.376z" fill="#F7B81D"/><path d="M6.033 2.908A3.096 3.096 0 002.94 6a3.096 3.096 0 003.093 3.092A3.095 3.095 0 009.125 6a3.096 3.096 0 00-3.092-3.092zm0 5.12A2.03 2.03 0 014.005 6a2.03 2.03 0 012.028-2.027A2.03 2.03 0 018.06 6a2.03 2.03 0 01-2.027 2.027zm3.221-6.023a.784.784 0 00-.78.78c0 .206.083.408.229.553a.787.787 0 00.551.229.788.788 0 00.553-.229.784.784 0 00-.552-1.333z" fill="#F7B81D"/></svg>