<svg width="86" height="100" fill="none" xmlns="http://www.w3.org/2000/svg"><path d="M85.333 84.967L72.243 62.47c2.265-.691 4.678-1.301 5.68-3.032 1.671-2.885-1.303-7.617-.522-10.709.805-3.182 5.554-5.935 5.554-9.17 0-3.151-4.91-6.832-5.715-9.996-.786-3.091 2.179-7.828.503-10.71-1.677-2.88-7.26-2.644-9.559-4.856-2.364-2.276-2.357-7.844-5.21-9.37-2.864-1.53-7.518 1.564-10.698.83C49.132 4.734 46.323 0 43.04 0c-3.332 0-8.633 5.37-9.464 5.562-3.178.74-7.839-2.347-10.7-.81-2.85 1.53-2.832 7.1-5.193 9.38-2.294 2.215-7.878 1.989-9.55 4.873-1.67 2.884 1.304 7.615.524 10.709-.783 3.1-5.698 6.243-5.698 9.83 0 3.235 4.761 5.98 5.57 9.16.787 3.091-2.178 7.828-.502 10.71.913 1.569 2.983 2.213 5.051 2.832.242.072.698.342.389.792L.666 85.132C-.24 86.695.496 88.035 2.3 88.11l8.832.368c1.804.076 4.068 1.387 5.031 2.915l4.713 7.479c.963 1.527 2.491 1.499 3.397-.064 0 0 13.187-22.767 13.192-22.773.265-.31.53-.246.658-.138 1.443 1.228 3.454 2.454 5.133 2.454 1.646 0 3.17-1.154 4.679-2.44.122-.105.421-.32.64.126l13.175 22.65c.908 1.561 2.437 1.587 3.397.058l4.7-7.488c.96-1.529 3.221-2.845 5.026-2.924l8.831-.384c1.804-.08 2.537-1.421 1.629-2.982zm-27.697-20.48c-9.765 5.682-21.487 5.073-30.44-.574-13.119-8.403-17.435-25.786-9.549-39.398 7.977-13.769 25.51-18.627 39.404-11.06l.217.12.308.174A29.154 29.154 0 0168.24 24.381c8.134 13.981 3.377 31.973-10.604 40.107z" fill="#F7B81D"/><path d="M55.403 17.864c-.04-.024-.082-.046-.122-.069-7.422-4.295-16.88-4.61-24.808.003-11.764 6.844-15.767 21.983-8.923 33.747a24.524 24.524 0 008.252 8.512c.28.178.565.352.855.52 11.777 6.823 26.907 2.793 33.73-8.983 6.822-11.777 2.793-26.908-8.984-33.73zm2.946 19.252l-4.123 4.02c-1.278 1.244-2.076 3.701-1.774 5.459l.973 5.675c.302 1.758-.743 2.517-2.322 1.687l-5.097-2.68c-1.578-.83-4.162-.83-5.74 0l-5.097 2.68c-1.579.83-2.624.071-2.322-1.687l.973-5.675c.302-1.758-.496-4.215-1.774-5.46l-4.123-4.019c-1.277-1.245-.878-2.473.887-2.73l5.698-.828c1.765-.257 3.855-1.775 4.645-3.374L41.7 25.02c.79-1.599 2.081-1.599 2.87 0l2.549 5.164c.79 1.6 2.879 3.117 4.644 3.374l5.698.828c1.765.257 2.164 1.485.887 2.73z" fill="#F7B81D"/></svg>