<svg width="22" height="12" fill="none" xmlns="http://www.w3.org/2000/svg"><path d="M20.921 10.837a2.05 2.05 0 00-.071-.137c-.365-.657-1.063-1.463-2.092-2.42l-.022-.022-.01-.01-.011-.012h-.012c-.467-.445-.762-.744-.886-.898-.227-.292-.278-.587-.154-.887.087-.226.416-.704.986-1.434.299-.387.536-.697.711-.93 1.263-1.68 1.811-2.753 1.643-3.22l-.065-.11c-.044-.065-.157-.126-.34-.18-.182-.055-.416-.064-.7-.028l-3.154.022a.41.41 0 00-.22.006l-.142.033-.055.027-.043.033a.486.486 0 00-.12.115.753.753 0 00-.11.191 17.879 17.879 0 01-1.172 2.464c-.27.453-.518.845-.745 1.178a5.668 5.668 0 01-.569.733 3.976 3.976 0 01-.416.378c-.124.095-.22.135-.285.12a7.912 7.912 0 01-.186-.043.728.728 0 01-.246-.269 1.202 1.202 0 01-.126-.427 4.674 4.674 0 01-.039-.443 9.18 9.18 0 01.006-.526c.007-.226.01-.38.01-.46 0-.277.006-.579.017-.903l.027-.772c.008-.19.011-.391.011-.603a2.5 2.5 0 00-.038-.498 1.707 1.707 0 00-.115-.35.59.59 0 00-.224-.263 1.265 1.265 0 00-.367-.148c-.387-.088-.88-.135-1.478-.142C8.76-.013 7.889.075 7.5.264a1.47 1.47 0 00-.416.329c-.131.16-.15.248-.055.263.438.065.749.222.931.47l.066.132c.051.095.102.263.153.504.051.24.084.507.099.799.036.533.036.99 0 1.369-.037.38-.071.675-.104.887a1.776 1.776 0 01-.148.515 2.17 2.17 0 01-.132.24.189.189 0 01-.054.055.82.82 0 01-.296.055c-.102 0-.226-.051-.372-.153a2.627 2.627 0 01-.455-.422 5.635 5.635 0 01-.53-.75 12.877 12.877 0 01-.614-1.139L5.399 3.1a26.32 26.32 0 01-.45-.892c-.189-.39-.357-.769-.503-1.134a.722.722 0 00-.263-.35L4.13.691a.75.75 0 00-.176-.093 1.162 1.162 0 00-.252-.071l-3 .022c-.307 0-.515.07-.624.208L.033.823A.354.354 0 000 .998c0 .08.022.179.066.295a36.14 36.14 0 001.429 2.98c.514.955.962 1.726 1.341 2.31.38.584.767 1.135 1.16 1.653.395.518.656.85.784.997.128.146.228.255.301.328l.274.263c.175.175.432.385.772.63.34.244.715.485 1.128.723.412.237.892.43 1.44.58.547.15 1.08.21 1.599.18h1.26c.255-.021.448-.102.58-.24l.043-.055a.726.726 0 00.082-.203c.026-.09.038-.191.038-.3a3.603 3.603 0 01.072-.85 2.23 2.23 0 01.186-.569 1.4 1.4 0 01.422-.482.71.71 0 01.087-.038c.175-.058.381-.002.619.17.237.172.46.383.668.635.208.252.458.535.75.849.292.314.548.547.767.7l.219.132c.146.088.336.168.57.241.233.073.437.091.612.055l2.804-.044c.277 0 .493-.046.646-.137.153-.091.244-.192.273-.301a.844.844 0 00.006-.373 1.37 1.37 0 00-.077-.29z" fill="#F7B81D"/></svg>