<svg width="18" height="18" fill="none" xmlns="http://www.w3.org/2000/svg"><path d="M18 8.768c0 4.843-3.956 8.768-8.837 8.768a8.863 8.863 0 01-4.27-1.09L0 18l1.595-4.706A8.679 8.679 0 01.328 8.768C.328 3.926 4.283 0 9.164 0 14.044.001 18 3.926 18 8.768zm-8.838-7.37c-4.096 0-7.428 3.307-7.428 7.372 0 1.613.526 3.106 1.415 4.321l-.927 2.737 2.853-.907a7.427 7.427 0 004.087 1.219c4.097 0 7.43-3.306 7.43-7.372.001-4.063-3.333-7.37-7.43-7.37zm4.463 9.39c-.055-.088-.2-.143-.415-.25-.216-.108-1.282-.628-1.48-.698-.2-.073-.344-.109-.488.106-.143.216-.558.7-.686.844-.126.144-.252.162-.469.056-.216-.11-.915-.335-1.742-1.067A6.452 6.452 0 017.14 8.291c-.127-.215-.013-.331.095-.438.097-.097.216-.251.325-.378.109-.125.144-.213.217-.357.07-.144.035-.269-.019-.377-.054-.108-.486-1.165-.668-1.595-.18-.43-.36-.359-.487-.359-.126 0-.27-.017-.415-.017a.793.793 0 00-.577.267c-.198.216-.758.735-.758 1.793 0 1.059.776 2.08.884 2.223.11.142 1.5 2.384 3.701 3.244 2.203.86 2.203.573 2.6.537.398-.037 1.282-.52 1.461-1.021.181-.504.181-.935.127-1.025z" fill="#262626"/></svg>